<?xml version="1.0" standalone="no"?><!DOCTYPE svg PUBLIC "-//W3C//DTD SVG 1.1//EN" "http://www.w3.org/Graphics/SVG/1.1/DTD/svg11.dtd"><svg t="1626099491673" class="icon" viewBox="0 0 1024 1024" version="1.1" xmlns="http://www.w3.org/2000/svg" p-id="2195" xmlns:xlink="http://www.w3.org/1999/xlink" width="200" height="200"><defs><style type="text/css"></style></defs><path d="M560.54 553.96m-300.58 0a300.58 300.58 0 1 0 601.16 0 300.58 300.58 0 1 0-601.16 0Z" fill="#E03B5D" p-id="2196"></path><path d="M515.4 954A448 448 0 0 1 198.56 189.1a448 448 0 1 1 633.68 633.68A445.14 445.14 0 0 1 515.4 954z m0-844.14c-218.4 0-396 177.66-396 396s177.68 396 396 396 396-177.68 396-396-177.6-395.98-396-395.98z" fill="#231815" p-id="2197"></path><path d="M487.06 212.12m24 0l8.7 0q24 0 24 24l0 539.62q0 24-24 24l-8.7 0q-24 0-24-24l0-539.62q0-24 24-24Z" fill="#231815" p-id="2198"></path><path d="M519.74 800.76h-8.68a25.02 25.02 0 0 1-25-25V236.12a25.02 25.02 0 0 1 25-25h8.68a25.02 25.02 0 0 1 25 25v539.64a25.02 25.02 0 0 1-25 25z m-8.68-587.64a23.02 23.02 0 0 0-23 23v539.64a23.02 23.02 0 0 0 23 23h8.68a23.02 23.02 0 0 0 23-23V236.12a23.02 23.02 0 0 0-23-23z" fill="#231815" p-id="2199"></path><path d="M809.22 476.22m0 24l0 8.7q0 24-24 24l-539.62 0q-24 0-24-24l0-8.7q0-24 24-24l539.62 0q24 0 24 24Z" fill="#231815" p-id="2200"></path><path d="M785.22 534H245.58a25.02 25.02 0 0 1-25-25v-8.68a25.02 25.02 0 0 1 25-25h539.64a25.02 25.02 0 0 1 25 25v8.68a25.02 25.02 0 0 1-25 25z m-539.64-56.78a23.02 23.02 0 0 0-23 23v8.68a23.02 23.02 0 0 0 23 23h539.64a23.02 23.02 0 0 0 23-23v-8.68a23.02 23.02 0 0 0-23-23z" fill="#231815" p-id="2201"></path></svg>