<?xml version="1.0" standalone="no"?><!DOCTYPE svg PUBLIC "-//W3C//DTD SVG 1.1//EN" "http://www.w3.org/Graphics/SVG/1.1/DTD/svg11.dtd"><svg t="1626099545795" class="icon" viewBox="0 0 1024 1024" version="1.1" xmlns="http://www.w3.org/2000/svg" p-id="2353" xmlns:xlink="http://www.w3.org/1999/xlink" width="200" height="200"><defs><style type="text/css"></style></defs><path d="M615.98 575.08m-300.58 0a300.58 300.58 0 1 0 601.16 0 300.58 300.58 0 1 0-601.16 0Z" fill="#E03B5D" p-id="2354"></path><path d="M285.68 779.24a48.82 48.82 0 0 1-48.56-53.44l10.18-107.4a83.08 83.08 0 0 1 23.88-50.78L668.86 170A82.94 82.94 0 0 1 786 170l60.16 60.16a82.8 82.8 0 0 1 0 117.16L448.5 744.94a83.04 83.04 0 0 1-50.76 23.9l-107.4 10.18c-1.56 0.14-3.12 0.22-4.66 0.22z m109.6-36.44zM727.44 198a30.44 30.44 0 0 0-21.6 8.92L308.16 604.6a30.64 30.64 0 0 0-8.8 18.72l-9.78 103.24 103.22-9.78a30.62 30.62 0 0 0 18.72-8.82L809.2 310.28a30.52 30.52 0 0 0 0-43.2l-60.16-60.16a30.36 30.36 0 0 0-21.6-8.92z" fill="#231815" p-id="2355"></path><path d="M207.88 824.22m28.34 0l657.66 0q28.34 0 28.34 28.34l0 0.02q0 28.34-28.34 28.34l-657.66 0q-28.34 0-28.34-28.34l0-0.02q0-28.34 28.34-28.34Z" fill="#231815" p-id="2356"></path><path d="M893.86 882H236.22a29.36 29.36 0 0 1 0-58.7h657.64a29.36 29.36 0 0 1 0 58.7z m-657.64-56.78a27.36 27.36 0 0 0 0 54.7h657.64a27.36 27.36 0 0 0 0-54.7z" fill="#231815" p-id="2357"></path></svg>